<svg version="1.1" id="Layer_1" xmlns="http://www.w3.org/2000/svg" xmlns:xlink="http://www.w3.org/1999/xlink" x="0px" y="0px"
	 width="100%" viewBox="0 0 200 200" enable-background="new 0 0 200 200" xml:space="preserve">
<path fill="#FFFFFF" opacity="1.000000" stroke="none" 
	d="
M93.000000,201.000000 
	C62.019073,201.000000 31.538143,201.000000 1.028608,201.000000 
	C1.028608,134.394104 1.028608,67.788193 1.028608,1.091139 
	C67.564110,1.091139 134.128387,1.091139 200.846329,1.091139 
	C200.846329,67.666397 200.846329,134.333160 200.846329,201.000000 
	C165.121811,201.000000 129.310898,201.000000 93.000000,201.000000 
M51.841293,143.978607 
	C61.212978,143.594543 69.351166,139.919022 76.154984,133.769485 
	C87.910072,123.144798 93.341415,110.041809 90.197899,93.203506 
	C87.079269,72.517822 67.895218,57.430340 46.039406,57.843227 
	C25.984659,58.222092 2.709542,76.047554 4.831241,105.244629 
	C6.463475,127.706093 27.709236,145.842041 51.841293,143.978607 
M166.725403,97.939552 
	C164.588043,97.665436 162.450684,97.391312 160.819366,97.182098 
	C160.819366,103.047562 160.819366,107.799988 160.819366,112.625336 
	C162.338379,112.625336 163.916718,112.625336 164.766312,112.625336 
	C165.154907,108.866318 165.227432,105.412697 166.000900,102.123924 
	C166.284943,100.916145 168.227142,100.098328 169.412979,99.102638 
	C170.109970,100.398010 171.191879,101.630928 171.414566,103.003265 
	C171.756592,105.111183 171.588150,107.318527 171.491318,109.477180 
	C171.344910,112.741432 172.653076,113.642036 174.662216,112.773178 
	C175.201294,108.566528 175.427277,104.980995 176.246002,101.536362 
	C176.488388,100.516594 178.401230,99.893867 179.548615,99.089203 
	C180.199249,100.260323 181.230469,101.373947 181.417938,102.615021 
	C181.762833,104.898224 181.431473,107.277962 181.707092,109.578506 
	C182.171356,113.453819 182.935120,113.721909 186.285614,111.973694 
	C185.799576,110.433060 185.141113,109.077545 184.982254,107.665810 
	C184.760284,105.693253 185.234543,103.606499 184.809311,101.703011 
	C184.404770,99.892151 183.581787,97.250229 182.298706,96.796974 
	C180.736572,96.245148 178.488846,97.559494 176.564499,98.153519 
	C175.995514,98.329163 175.517197,98.798515 174.926270,99.179024 
	C172.770966,96.019829 170.307922,95.157318 166.725403,97.939552 
M101.677963,111.686150 
	C106.783516,112.287025 111.889076,112.887909 117.586548,113.558449 
	C117.367165,110.950142 117.242661,109.469788 117.234734,109.375557 
	C113.794067,109.839272 110.256927,111.390617 108.388565,110.237679 
	C106.811195,109.264305 107.169449,105.154198 106.464722,101.306168 
	C109.966827,102.298164 112.060181,102.891121 114.371002,103.545685 
	C114.371002,102.005844 114.371002,100.369240 114.371002,98.910583 
	C111.872086,99.346947 109.710747,99.724365 106.188118,100.339493 
	C107.138229,96.784012 107.210930,92.677757 108.604988,92.165169 
	C110.876579,91.329926 114.011093,92.841560 116.699142,93.347359 
	C116.699142,92.650772 116.699142,90.923470 116.699142,89.587448 
	C111.653397,89.587448 106.977592,89.587448 103.680237,89.587448 
	C103.157188,97.191124 102.679741,104.131897 101.677963,111.686150 
M124.421539,101.425278 
	C124.562881,99.938721 124.572968,98.425171 124.871979,96.971039 
	C125.565430,93.598671 127.310951,90.490181 131.046783,91.294037 
	C132.961945,91.706123 134.325394,94.682266 136.395676,97.015160 
	C136.690552,96.333282 138.114685,94.614548 137.843674,93.226883 
	C137.569290,91.821884 135.828217,90.171135 134.361069,89.633286 
	C130.323318,88.153069 126.319801,88.773018 123.448357,92.194122 
	C119.671448,96.694000 119.457092,101.965843 121.591354,107.208290 
	C123.148972,111.034332 126.158745,113.214706 130.525223,113.169708 
	C134.762970,113.126030 136.487518,111.980019 137.466995,108.359016 
	C129.777679,112.889359 125.864525,111.073265 124.421539,101.425278 
M154.703781,98.847885 
	C151.197159,95.437538 147.294662,95.061806 143.547150,98.092720 
	C139.910645,101.033859 140.189041,105.176659 141.730774,109.027275 
	C143.269638,112.870743 146.764572,113.561676 150.469742,112.995445 
	C156.026566,112.146271 158.028610,106.202339 154.703781,98.847885 
z"/>
<path fill="#FEC43D" opacity="1.000000" stroke="none" 
	d="
M50.990463,143.878799 
	C27.709236,145.842041 6.463475,127.706093 4.831241,105.244629 
	C2.709542,76.047554 25.984659,58.222092 46.039406,57.843227 
	C67.895218,57.430340 87.079269,72.517822 89.851868,93.483566 
	C84.942863,89.281013 80.446846,84.727142 75.786514,80.348137 
	C73.695511,78.383369 71.275620,76.768608 68.937256,74.623047 
	C68.568047,73.883652 68.314949,73.253204 67.957962,73.187538 
	C60.296108,71.778191 52.656578,70.071175 44.925980,69.343933 
	C43.138351,69.175758 40.285622,72.038933 39.263672,74.154747 
	C38.030941,76.706932 38.227043,79.949257 37.530983,82.759354 
	C35.833557,81.423370 34.409813,80.220886 32.525436,78.941208 
	C27.992638,78.864021 23.920465,78.864021 19.525154,78.864021 
	C19.675116,80.821587 19.773861,82.110611 19.958261,83.709709 
	C23.045416,87.015282 26.046917,90.010773 29.163179,93.409111 
	C29.894634,100.717613 30.416407,107.633965 31.192057,114.521721 
	C31.396336,116.335701 32.385498,118.061287 33.130920,120.151497 
	C34.271996,121.364967 35.296379,122.254417 36.207397,123.468994 
	C34.444214,127.265945 36.201805,129.388855 39.148170,131.390686 
	C43.202332,135.744156 47.096397,139.811478 50.990463,143.878799 
z"/>
<path fill="#FBA735" opacity="1.000000" stroke="none" 
	d="
M36.320763,123.143867 
	C35.296379,122.254417 34.271996,121.364967 33.591156,120.049881 
	C40.299377,119.541878 46.664051,119.459526 53.459694,119.560097 
	C57.342716,119.779839 60.808132,119.640236 64.243256,119.900513 
	C68.069229,120.190422 69.271744,118.512886 68.735214,114.980476 
	C63.414288,114.980476 58.216740,114.980476 52.553429,114.919296 
	C47.803085,114.849747 43.509377,114.667107 39.236942,114.890800 
	C36.092392,115.055428 35.536079,113.603294 36.499123,111.008209 
	C42.331173,110.939789 47.698441,110.882401 53.524170,110.892960 
	C57.982307,110.972404 62.002663,111.217422 65.970200,110.866028 
	C67.319405,110.746536 69.362778,109.340820 69.673744,108.152489 
	C71.290253,101.975212 72.449760,95.678345 73.891243,88.840424 
	C70.944572,88.840424 68.467598,88.840424 66.040092,88.463272 
	C66.353683,85.019630 66.617813,81.953140 66.917480,78.531143 
	C66.977303,77.461975 67.001579,76.748306 67.306816,75.975647 
	C68.060165,75.609428 68.532570,75.302223 69.004974,74.995018 
	C71.275620,76.768608 73.695511,78.383369 75.786514,80.348137 
	C80.446846,84.727142 84.942863,89.281013 89.824211,93.896484 
	C93.341415,110.041809 87.910072,123.144798 76.154984,133.769485 
	C69.351166,139.919022 61.212978,143.594543 51.415878,143.928711 
	C47.096397,139.811478 43.202332,135.744156 39.411198,131.336945 
	C39.685955,130.947174 39.857784,130.897278 40.404327,130.906647 
	C43.937794,130.549881 45.737221,128.454453 44.787598,125.661308 
	C44.216969,123.982918 41.624290,122.991997 39.605938,121.690781 
	C38.287937,122.174255 37.304352,122.659065 36.320763,123.143867 
M60.177147,121.726280 
	C58.922600,123.382324 56.587994,125.131409 56.720375,126.667969 
	C56.850105,128.173737 59.490978,129.463165 61.775944,130.965897 
	C63.182285,129.259323 64.588623,127.552757 65.994965,125.846184 
	C64.302917,124.463409 62.610878,123.080643 60.177147,121.726280 
z"/>
<path fill="#FDDD47" opacity="1.000000" stroke="none" 
	d="
M166.983978,97.694824 
	C170.307922,95.157318 172.770966,96.019829 174.926270,99.179024 
	C175.517197,98.798515 175.995514,98.329163 176.564499,98.153519 
	C178.488846,97.559494 180.736572,96.245148 182.298706,96.796974 
	C183.581787,97.250229 184.404770,99.892151 184.809311,101.703011 
	C185.234543,103.606499 184.760284,105.693253 184.982254,107.665810 
	C185.141113,109.077545 185.799576,110.433060 186.285614,111.973694 
	C182.935120,113.721909 182.171356,113.453819 181.707092,109.578506 
	C181.431473,107.277962 181.762833,104.898224 181.417938,102.615021 
	C181.230469,101.373947 180.199249,100.260323 179.548615,99.089203 
	C178.401230,99.893867 176.488388,100.516594 176.246002,101.536362 
	C175.427277,104.980995 175.201294,108.566528 174.662216,112.773178 
	C172.653076,113.642036 171.344910,112.741432 171.491318,109.477180 
	C171.588150,107.318527 171.756592,105.111183 171.414566,103.003265 
	C171.191879,101.630928 170.109970,100.398010 169.412979,99.102638 
	C168.227142,100.098328 166.284943,100.916145 166.000900,102.123924 
	C165.227432,105.412697 165.154907,108.866318 164.766312,112.625336 
	C163.916718,112.625336 162.338379,112.625336 160.819366,112.625336 
	C160.819366,107.799988 160.819366,103.047562 160.819366,97.182098 
	C162.450684,97.391312 164.588043,97.665436 166.983978,97.694824 
z"/>
<path fill="#FDDE4C" opacity="1.000000" stroke="none" 
	d="
M101.940132,111.379410 
	C102.679741,104.131897 103.157188,97.191124 103.680237,89.587448 
	C106.977592,89.587448 111.653397,89.587448 116.699142,89.587448 
	C116.699142,90.923470 116.699142,92.650772 116.699142,93.347359 
	C114.011093,92.841560 110.876579,91.329926 108.604988,92.165169 
	C107.210930,92.677757 107.138229,96.784012 106.188118,100.339493 
	C109.710747,99.724365 111.872086,99.346947 114.371002,98.910583 
	C114.371002,100.369240 114.371002,102.005844 114.371002,103.545685 
	C112.060181,102.891121 109.966827,102.298164 106.464722,101.306168 
	C107.169449,105.154198 106.811195,109.264305 108.388565,110.237679 
	C110.256927,111.390617 113.794067,109.839272 117.234734,109.375557 
	C117.242661,109.469788 117.367165,110.950142 117.586548,113.558449 
	C111.889076,112.887909 106.783516,112.287025 101.940132,111.379410 
z"/>
<path fill="#FDDC42" opacity="1.000000" stroke="none" 
	d="
M124.436043,101.871674 
	C125.864525,111.073265 129.777679,112.889359 137.466995,108.359016 
	C136.487518,111.980019 134.762970,113.126030 130.525223,113.169708 
	C126.158745,113.214706 123.148972,111.034332 121.591354,107.208290 
	C119.457092,101.965843 119.671448,96.694000 123.448357,92.194122 
	C126.319801,88.773018 130.323318,88.153069 134.361069,89.633286 
	C135.828217,90.171135 137.569290,91.821884 137.843674,93.226883 
	C138.114685,94.614548 136.690552,96.333282 136.395676,97.015160 
	C134.325394,94.682266 132.961945,91.706123 131.046783,91.294037 
	C127.310951,90.490181 125.565430,93.598671 124.871979,96.971039 
	C124.572968,98.425171 124.562881,99.938721 124.436043,101.871674 
z"/>
<path fill="#FDDC42" opacity="1.000000" stroke="none" 
	d="
M154.909119,99.169189 
	C158.028610,106.202339 156.026566,112.146271 150.469742,112.995445 
	C146.764572,113.561676 143.269638,112.870743 141.730774,109.027275 
	C140.189041,105.176659 139.910645,101.033859 143.547150,98.092720 
	C147.294662,95.061806 151.197159,95.437538 154.909119,99.169189 
M152.655884,107.813103 
	C152.686279,105.836700 153.257065,103.647812 152.588058,101.946419 
	C151.975510,100.388603 149.667755,98.104195 148.739471,98.367737 
	C147.057465,98.845291 144.756500,100.922272 144.676773,102.434982 
	C144.534256,105.139648 145.849197,107.921112 146.554855,110.670471 
	C148.472519,109.969688 150.390182,109.268906 152.655884,107.813103 
z"/>
<path fill="#41C3FA" opacity="1.000000" stroke="none" 
	d="
M36.034340,111.019257 
	C35.536079,113.603294 36.092392,115.055428 39.236942,114.890800 
	C43.509377,114.667107 47.803085,114.849747 52.548477,115.287064 
	C53.015762,116.936394 53.022240,118.156776 53.028721,119.377167 
	C46.664051,119.459526 40.299377,119.541878 33.474472,119.725845 
	C32.385498,118.061287 31.396336,116.335701 31.192057,114.521721 
	C30.416407,107.633965 29.894634,100.717613 29.234459,92.964157 
	C28.574137,82.581680 30.518829,83.168839 19.872608,83.399635 
	C19.773861,82.110611 19.675116,80.821587 19.525154,78.864021 
	C23.920465,78.864021 27.992638,78.864021 32.536335,79.372597 
	C33.354515,82.916374 33.701172,85.951569 34.017868,89.430359 
	C34.670052,96.922386 35.352196,103.970825 36.034340,111.019257 
z"/>
<path fill="#D92A36" opacity="1.000000" stroke="none" 
	d="
M66.881935,78.886642 
	C66.617813,81.953140 66.353683,85.019630 65.581581,88.532242 
	C61.060719,89.034637 57.047840,89.090919 53.046791,89.067734 
	C53.058620,88.988274 53.050171,88.827827 53.101208,88.431793 
	C55.289230,80.347221 54.564705,79.241806 46.576237,78.099968 
	C44.096611,77.745544 42.066513,77.834442 41.735619,81.213509 
	C41.483551,83.787552 40.583366,86.298119 39.602211,88.907288 
	C38.483711,88.933693 37.734524,88.889732 36.984917,88.462448 
	C37.257889,86.350357 37.531277,84.621605 37.804668,82.892853 
	C38.227043,79.949257 38.030941,76.706932 39.263672,74.154747 
	C40.285622,72.038933 43.138351,69.175758 44.925980,69.343933 
	C52.656578,70.071175 60.296108,71.778191 67.957962,73.187538 
	C68.314949,73.253204 68.568047,73.883652 68.937256,74.623047 
	C68.532570,75.302223 68.060165,75.609428 66.948357,75.806450 
	C62.874516,75.119720 59.440086,74.543182 55.717373,73.715706 
	C51.863556,72.821342 48.312386,72.056999 44.721085,71.630661 
	C43.949844,71.539108 43.033508,72.669746 42.184013,73.237373 
	C42.897526,74.146294 43.511440,75.726181 44.341583,75.849419 
	C48.184383,76.419830 52.087242,76.585617 56.344166,77.014267 
	C60.107143,77.716995 63.494537,78.301819 66.881935,78.886642 
z"/>
<path fill="#E0B153" opacity="1.000000" stroke="none" 
	d="
M19.958261,83.709709 
	C30.518829,83.168839 28.574137,82.581680 29.119698,92.561310 
	C26.046917,90.010773 23.045416,87.015282 19.958261,83.709709 
z"/>
<path fill="#477B9A" opacity="1.000000" stroke="none" 
	d="
M40.029610,130.847382 
	C39.857784,130.897278 39.685955,130.947174 39.251099,131.050781 
	C36.201805,129.388855 34.444214,127.265945 36.207397,123.468994 
	C37.304352,122.659065 38.287937,122.174255 39.618488,122.163048 
	C39.986835,125.373558 40.008221,128.110474 40.029610,130.847382 
z"/>
<path fill="#FBA735" opacity="1.000000" stroke="none" 
	d="
M37.530983,82.759354 
	C37.531277,84.621605 37.257889,86.350357 36.622757,88.528641 
	C35.523285,88.981041 34.785557,88.983910 34.047825,88.986771 
	C33.701172,85.951569 33.354515,82.916374 32.996964,79.449783 
	C34.409813,80.220886 35.833557,81.423370 37.530983,82.759354 
z"/>
<path fill="#7DD8FD" opacity="1.000000" stroke="none" 
	d="
M53.034958,89.147194 
	C57.047840,89.090919 61.060719,89.034637 65.532112,88.909393 
	C68.467598,88.840424 70.944572,88.840424 73.891243,88.840424 
	C72.449760,95.678345 71.290253,101.975212 69.673744,108.152489 
	C69.362778,109.340820 67.319405,110.746536 65.970200,110.866028 
	C62.002663,111.217422 57.982307,110.972404 53.511803,110.483078 
	C53.010292,108.362305 52.979607,106.719337 53.372784,105.048264 
	C58.153156,103.633392 55.330566,100.073349 55.839050,97.576538 
	C55.973610,96.915833 53.970493,95.819771 52.976463,94.511597 
	C53.014317,92.448776 53.024635,90.797989 53.034958,89.147194 
M61.138737,104.045021 
	C62.555450,104.375160 63.972160,104.705299 66.015068,105.181366 
	C66.015068,102.129158 66.277634,99.824120 65.896393,97.631004 
	C65.724213,96.640511 64.270622,95.872765 63.398403,95.003952 
	C62.566895,95.923195 61.254642,96.732338 61.013172,97.786713 
	C60.621773,99.495728 60.932873,101.365616 61.138737,104.045021 
z"/>
<path fill="#BFE9FF" opacity="1.000000" stroke="none" 
	d="
M53.046787,89.067734 
	C53.024635,90.797989 53.014317,92.448776 52.584984,94.621826 
	C50.717579,98.589592 49.447395,102.021057 52.948921,105.076378 
	C52.979607,106.719337 53.010292,108.362305 53.053341,110.415146 
	C47.698441,110.882401 42.331173,110.939789 36.499123,111.008209 
	C35.352196,103.970825 34.670052,96.922386 34.017868,89.430367 
	C34.785557,88.983910 35.523285,88.981041 36.623177,88.911980 
	C37.734524,88.889732 38.483711,88.933693 40.064091,88.974022 
	C44.946911,88.922874 48.998539,88.875351 53.050171,88.827827 
	C53.050171,88.827827 53.058620,88.988274 53.046787,89.067734 
M45.881111,101.327461 
	C45.881111,99.397942 45.881111,97.468430 45.881111,95.651062 
	C40.057041,94.650490 39.432941,95.327217 40.212017,101.926064 
	C40.341415,103.022095 41.619274,103.982536 42.366417,105.005630 
	C43.535412,104.077690 44.704411,103.149757 45.881111,101.327461 
z"/>
<path fill="#1AA3DF" opacity="1.000000" stroke="none" 
	d="
M53.459694,119.560097 
	C53.022240,118.156776 53.015762,116.936394 53.014236,115.348236 
	C58.216740,114.980476 63.414288,114.980476 68.735214,114.980476 
	C69.271744,118.512886 68.069229,120.190422 64.243256,119.900513 
	C60.808132,119.640236 57.342716,119.779839 53.459694,119.560097 
z"/>
<path fill="#21638D" opacity="1.000000" stroke="none" 
	d="
M40.404327,130.906647 
	C40.008221,128.110474 39.986835,125.373558 39.952900,122.164383 
	C41.624290,122.991997 44.216969,123.982918 44.787598,125.661308 
	C45.737221,128.454453 43.937794,130.549881 40.404327,130.906647 
z"/>
<path fill="#EACFB6" opacity="1.000000" stroke="none" 
	d="
M66.917480,78.531143 
	C63.494537,78.301819 60.107143,77.716995 56.359337,76.648346 
	C56.001171,75.431892 56.003414,74.699272 56.005661,73.966644 
	C59.440086,74.543182 62.874516,75.119720 66.667404,75.865448 
	C67.001579,76.748306 66.977303,77.461975 66.917480,78.531143 
z"/>
<path fill="#21638D" opacity="1.000000" stroke="none" 
	d="
M60.918831,121.697868 
	C62.610878,123.080643 64.302917,124.463409 65.994965,125.846184 
	C64.588623,127.552757 63.182285,129.259323 61.388847,130.460052 
	C60.974113,127.202087 60.946472,124.449974 60.918831,121.697868 
z"/>
<path fill="#477B9A" opacity="1.000000" stroke="none" 
	d="
M60.547989,121.712074 
	C60.946472,124.449974 60.974113,127.202087 61.015736,130.400864 
	C59.490978,129.463165 56.850105,128.173737 56.720375,126.667969 
	C56.587994,125.131409 58.922600,123.382324 60.547989,121.712074 
z"/>
<path fill="#FFFFFF" opacity="1.000000" stroke="none" 
	d="
M152.481873,108.190613 
	C150.390182,109.268906 148.472519,109.969688 146.554855,110.670471 
	C145.849197,107.921112 144.534256,105.139648 144.676773,102.434982 
	C144.756500,100.922272 147.057465,98.845291 148.739471,98.367737 
	C149.667755,98.104195 151.975510,100.388603 152.588058,101.946419 
	C153.257065,103.647812 152.686279,105.836700 152.481873,108.190613 
z"/>
<path fill="#F0434E" opacity="1.000000" stroke="none" 
	d="
M53.101208,88.431793 
	C48.998539,88.875351 44.946911,88.922874 40.433399,88.903664 
	C40.583366,86.298119 41.483551,83.787552 41.735619,81.213509 
	C42.066513,77.834442 44.096611,77.745544 46.576237,78.099968 
	C54.564705,79.241806 55.289230,80.347221 53.101208,88.431793 
z"/>
<path fill="#FBE0CC" opacity="1.000000" stroke="none" 
	d="
M55.717373,73.715698 
	C56.003414,74.699272 56.001171,75.431892 55.983757,76.530441 
	C52.087242,76.585617 48.184383,76.419830 44.341583,75.849419 
	C43.511440,75.726181 42.897526,74.146294 42.184013,73.237373 
	C43.033508,72.669746 43.949844,71.539108 44.721085,71.630661 
	C48.312386,72.056999 51.863556,72.821342 55.717373,73.715698 
z"/>
<path fill="#23B2F3" opacity="1.000000" stroke="none" 
	d="
M53.372787,105.048264 
	C49.447395,102.021057 50.717579,98.589592 52.557449,95.033844 
	C53.970493,95.819771 55.973610,96.915833 55.839050,97.576538 
	C55.330566,100.073349 58.153156,103.633392 53.372787,105.048264 
z"/>
<path fill="#1AA3DF" opacity="1.000000" stroke="none" 
	d="
M61.043056,103.606308 
	C60.932873,101.365616 60.621773,99.495728 61.013172,97.786713 
	C61.254642,96.732338 62.566895,95.923195 63.398403,95.003952 
	C64.270622,95.872765 65.724213,96.640511 65.896393,97.631004 
	C66.277634,99.824120 66.015068,102.129158 66.015068,105.181366 
	C63.972160,104.705299 62.555450,104.375160 61.043056,103.606308 
z"/>
<path fill="#51C9FF" opacity="1.000000" stroke="none" 
	d="
M45.877258,101.774643 
	C44.704411,103.149757 43.535412,104.077690 42.366417,105.005630 
	C41.619274,103.982536 40.341415,103.022095 40.212017,101.926064 
	C39.432941,95.327217 40.057041,94.650490 45.881111,95.651062 
	C45.881111,97.468430 45.881111,99.397942 45.877258,101.774643 
z"/>
</svg>