<svg version="1.1" id="Layer_1" xmlns="http://www.w3.org/2000/svg" xmlns:xlink="http://www.w3.org/1999/xlink" x="0px" y="0px"
	 width="100%" viewBox="0 0 200 200" enable-background="new 0 0 200 200" xml:space="preserve">
<path fill="#141921" opacity="1.000000" stroke="none" 
	d="
M93.000000,201.000000 
	C62.019073,201.000000 31.538143,201.000000 1.028608,201.000000 
	C1.028608,134.394104 1.028608,67.788193 1.028608,1.091139 
	C67.564110,1.091139 134.128387,1.091139 200.846329,1.091139 
	C200.846329,67.666397 200.846329,134.333160 200.846329,201.000000 
	C165.121811,201.000000 129.310898,201.000000 93.000000,201.000000 
M51.823875,143.984070 
	C56.150368,142.968155 60.686424,142.476761 64.767380,140.846283 
	C83.248779,133.462357 94.880455,111.830719 90.278740,93.257423 
	C86.650826,73.117294 69.555809,58.414234 49.100677,57.841068 
	C23.617582,57.127018 4.074076,77.377098 4.831501,103.710762 
	C5.503446,127.072510 27.364384,146.102875 51.823875,143.984070 
M182.068100,96.436623 
	C179.686920,97.153435 177.305740,97.870255 174.690842,98.657433 
	C170.778763,93.488426 165.279312,99.498314 160.564148,97.716522 
	C160.504898,97.694122 160.247025,98.197357 160.081863,98.455238 
	C160.363678,98.452957 160.645493,98.450668 160.927307,98.448387 
	C160.927307,103.120514 160.927307,107.792641 160.927307,112.648682 
	C162.275925,112.648682 163.849640,112.648682 164.825363,112.648682 
	C165.133804,108.952187 165.084702,105.481148 165.866272,102.208511 
	C166.171097,100.932129 168.345428,100.102234 169.668228,99.068962 
	C170.364548,100.401413 171.458267,101.674843 171.666916,103.079727 
	C172.006042,105.363289 171.474686,107.786324 171.889099,110.044350 
	C172.107285,111.233147 173.550690,112.197083 174.748901,113.631248 
	C175.147766,108.903175 175.099869,105.435844 175.886536,102.169510 
	C176.193161,100.896370 178.379044,100.075821 179.708939,99.049118 
	C180.392044,100.390488 181.443222,101.672386 181.671829,103.087189 
	C182.013184,105.199966 181.701736,107.409683 181.799561,109.572205 
	C181.979080,113.541595 183.873657,113.952080 186.258835,112.498001 
	C185.724503,110.004593 185.330444,108.088356 184.901123,106.180054 
	C184.198120,103.055344 183.472214,99.935799 182.068100,96.436623 
M106.937439,98.119240 
	C107.368416,95.964577 107.136063,93.093849 108.442207,91.883926 
	C109.469955,90.931885 112.442551,91.832069 114.454582,92.313515 
	C115.241432,92.501793 115.764297,93.793297 116.760895,95.016052 
	C116.760895,92.562302 116.760895,90.828186 116.760895,89.482498 
	C111.741547,89.482498 107.049759,89.482498 102.780396,89.482498 
	C102.780396,97.565681 102.780396,105.063942 102.780396,112.754929 
	C106.933983,112.754929 111.973610,112.754929 117.312721,112.754929 
	C117.171562,110.913383 117.053429,109.372223 117.045540,109.269356 
	C113.864044,109.798721 110.342522,111.476021 108.530716,110.365059 
	C106.871658,109.347740 107.059532,105.318382 106.157204,101.423317 
	C109.734344,102.324921 111.918419,102.875404 114.309532,103.478073 
	C114.309532,102.228859 114.309532,100.680267 114.309532,99.633102 
	C111.744652,99.409752 109.380760,99.203911 106.937439,98.119240 
M131.343735,91.043442 
	C132.866318,92.796188 134.388885,94.548943 136.360504,96.818611 
	C136.603485,96.390282 138.135666,94.912254 137.916367,93.770721 
	C137.633087,92.296196 136.215210,90.551498 134.821991,89.866081 
	C129.810364,87.400475 123.754639,89.955284 121.590622,95.107765 
	C118.733459,101.910583 121.158760,110.135193 126.707993,112.461586 
	C131.665680,114.539986 136.141937,112.850456 137.266983,109.514816 
	C134.523621,109.663544 130.875488,110.912521 128.291855,109.764931 
	C123.982773,107.850945 123.755753,103.095642 124.368866,98.871040 
	C124.895172,95.244560 125.803795,91.502419 131.343735,91.043442 
M155.982513,108.338409 
	C157.087891,103.848328 156.921021,99.669731 152.371323,97.105072 
	C148.716705,95.044968 143.990219,96.448555 141.953934,99.902100 
	C139.674698,103.767693 140.773865,109.630608 144.208313,111.926796 
	C148.010437,114.468834 152.310898,113.400368 155.982513,108.338409 
z"/>
<path fill="#FCC23B" opacity="1.000000" stroke="none" 
	d="
M50.973705,143.878418 
	C27.364384,146.102875 5.503446,127.072510 4.831501,103.710762 
	C4.074076,77.377098 23.617582,57.127018 49.100677,57.841068 
	C69.555809,58.414234 86.650826,73.117294 89.951904,93.499023 
	C85.964157,90.210419 82.375053,86.601524 78.620033,83.174423 
	C75.510597,80.336525 72.205437,77.713081 68.891502,74.635925 
	C68.324562,73.875153 67.901794,73.207664 67.374359,73.110954 
	C59.900986,71.740585 52.431839,70.325867 44.921116,69.190010 
	C41.440327,68.663620 39.814331,71.168808 39.140579,74.107178 
	C38.480400,76.986328 38.226482,79.958626 37.535812,82.728210 
	C35.852230,81.392738 34.427094,80.219093 32.542095,78.955559 
	C27.991682,78.865669 23.901133,78.865669 19.452339,78.865669 
	C19.633341,80.826645 19.752254,82.114952 19.988613,83.702209 
	C23.087069,87.003326 26.068075,90.005486 29.174761,93.407410 
	C29.901413,100.538086 30.401239,107.280518 31.165602,113.992821 
	C31.392042,115.981331 32.363598,117.885002 33.154774,120.129105 
	C34.310963,121.346733 35.306091,122.262787 36.201485,123.495705 
	C34.689762,127.184120 36.122772,129.427521 39.177010,131.371887 
	C43.232552,135.721054 47.103130,139.799744 50.973705,143.878418 
z"/>
<path fill="#FAA634" opacity="1.000000" stroke="none" 
	d="
M68.987000,74.994614 
	C72.205437,77.713081 75.510597,80.336525 78.620033,83.174423 
	C82.375053,86.601524 85.964157,90.210419 89.927605,93.914978 
	C94.880455,111.830719 83.248779,133.462357 64.767380,140.846283 
	C60.686424,142.476761 56.150368,142.968155 51.398788,143.931244 
	C47.103130,139.799744 43.232552,135.721054 39.442112,131.319214 
	C39.695427,130.946350 39.868607,130.896667 40.413795,130.903870 
	C43.923244,130.523621 45.734520,128.442627 44.784821,125.649162 
	C44.210674,123.960350 41.638645,122.950775 39.626690,121.642319 
	C38.293140,122.158699 37.297180,122.668770 36.301224,123.178841 
	C35.306091,122.262787 34.310963,121.346733 33.614090,120.012077 
	C40.300457,119.528328 46.688568,119.463181 53.505753,119.569611 
	C57.420574,119.776573 60.915382,119.667526 64.389664,119.885582 
	C68.317917,120.132126 69.246925,118.267937 68.659515,114.975037 
	C63.297955,114.975037 58.177200,114.975037 52.588593,114.914223 
	C47.832397,114.843590 43.535713,114.666580 39.258488,114.879860 
	C36.152843,115.034714 35.524540,113.629623 36.499485,111.009857 
	C42.349365,110.942413 47.734177,110.885689 53.574265,110.895279 
	C58.022430,110.972939 62.036194,111.218445 65.996605,110.865425 
	C67.337975,110.745857 69.363792,109.327370 69.675163,108.136101 
	C71.288094,101.965256 72.447243,95.675804 73.815422,89.186440 
	C70.942299,89.058830 68.467041,88.948898 66.045044,88.464615 
	C66.336334,85.008728 66.574348,81.927177 66.838844,78.500748 
	C66.905708,77.465881 66.946091,76.775902 67.251816,75.980057 
	C68.007111,75.581001 68.497055,75.287804 68.987000,74.994614 
M60.192596,121.690010 
	C58.971348,123.355911 56.709404,125.101097 56.828537,126.664871 
	C56.942226,128.157227 59.536606,129.460602 61.783997,130.960861 
	C63.186081,129.249588 65.729286,127.483467 65.650467,125.843353 
	C65.579926,124.375519 62.619488,123.046577 60.192596,121.690010 
z"/>
<path fill="#E4C42F" opacity="1.000000" stroke="none" 
	d="
M182.412048,96.625351 
	C183.472214,99.935799 184.198120,103.055344 184.901123,106.180054 
	C185.330444,108.088356 185.724503,110.004593 186.258835,112.498001 
	C183.873657,113.952080 181.979080,113.541595 181.799561,109.572205 
	C181.701736,107.409683 182.013184,105.199966 181.671829,103.087189 
	C181.443222,101.672386 180.392044,100.390488 179.708939,99.049118 
	C178.379044,100.075821 176.193161,100.896370 175.886536,102.169510 
	C175.099869,105.435844 175.147766,108.903175 174.748901,113.631248 
	C173.550690,112.197083 172.107285,111.233147 171.889099,110.044350 
	C171.474686,107.786324 172.006042,105.363289 171.666916,103.079727 
	C171.458267,101.674843 170.364548,100.401413 169.668228,99.068970 
	C168.345428,100.102234 166.171097,100.932129 165.866272,102.208511 
	C165.084702,105.481148 165.133804,108.952187 164.825363,112.648682 
	C163.849640,112.648682 162.275925,112.648682 160.927307,112.648682 
	C160.927307,107.792641 160.927307,103.120514 160.927307,98.448387 
	C160.645493,98.450668 160.363678,98.452957 160.081863,98.455238 
	C160.247025,98.197357 160.504898,97.694122 160.564148,97.716522 
	C165.279312,99.498314 170.778763,93.488426 174.690842,98.657433 
	C177.305740,97.870255 179.686920,97.153435 182.412048,96.625351 
z"/>
<path fill="#DEC02F" opacity="1.000000" stroke="none" 
	d="
M106.977158,98.558655 
	C109.380760,99.203911 111.744652,99.409752 114.309532,99.633102 
	C114.309532,100.680267 114.309532,102.228859 114.309532,103.478073 
	C111.918419,102.875404 109.734344,102.324921 106.157204,101.423317 
	C107.059532,105.318382 106.871658,109.347740 108.530716,110.365059 
	C110.342522,111.476021 113.864044,109.798721 117.045540,109.269356 
	C117.053429,109.372223 117.171562,110.913383 117.312721,112.754929 
	C111.973610,112.754929 106.933983,112.754929 102.780396,112.754929 
	C102.780396,105.063942 102.780396,97.565681 102.780396,89.482498 
	C107.049759,89.482498 111.741547,89.482498 116.760895,89.482498 
	C116.760895,90.828186 116.760895,92.562302 116.760895,95.016052 
	C115.764297,93.793297 115.241432,92.501793 114.454582,92.313515 
	C112.442551,91.832069 109.469955,90.931885 108.442207,91.883926 
	C107.136063,93.093849 107.368416,95.964577 106.977158,98.558655 
z"/>
<path fill="#E9C930" opacity="1.000000" stroke="none" 
	d="
M130.953110,91.035599 
	C125.803795,91.502419 124.895172,95.244560 124.368866,98.871040 
	C123.755753,103.095642 123.982773,107.850945 128.291855,109.764931 
	C130.875488,110.912521 134.523621,109.663544 137.266983,109.514816 
	C136.141937,112.850456 131.665680,114.539986 126.707993,112.461586 
	C121.158760,110.135193 118.733459,101.910583 121.590622,95.107765 
	C123.754639,89.955284 129.810364,87.400475 134.821991,89.866081 
	C136.215210,90.551498 137.633087,92.296196 137.916367,93.770721 
	C138.135666,94.912254 136.603485,96.390282 136.360504,96.818611 
	C134.388885,94.548943 132.866318,92.796188 130.953110,91.035599 
z"/>
<path fill="#E9C930" opacity="1.000000" stroke="none" 
	d="
M155.850555,108.702728 
	C152.310898,113.400368 148.010437,114.468834 144.208313,111.926796 
	C140.773865,109.630608 139.674698,103.767693 141.953934,99.902100 
	C143.990219,96.448555 148.716705,95.044968 152.371323,97.105072 
	C156.921021,99.669731 157.087891,103.848328 155.850555,108.702728 
M150.108032,98.302277 
	C145.248642,98.585266 142.705353,102.696175 144.729233,107.700157 
	C145.335251,109.198532 147.437469,111.115074 148.739883,111.032677 
	C150.160767,110.942802 152.553421,108.769592 152.570663,107.478455 
	C152.609497,104.570282 151.443344,101.646011 150.108032,98.302277 
z"/>
<path fill="#41C3FA" opacity="1.000000" stroke="none" 
	d="
M53.076679,119.398026 
	C46.688568,119.463181 40.300457,119.528328 33.453030,119.710510 
	C32.363598,117.885002 31.392042,115.981331 31.165602,113.992821 
	C30.401239,107.280518 29.901413,100.538086 29.249397,92.965294 
	C28.599663,82.252350 30.140617,83.404129 19.871166,83.403252 
	C19.752254,82.114952 19.633341,80.826645 19.452339,78.865669 
	C23.901133,78.865669 27.991682,78.865669 32.546516,79.383163 
	C33.358364,82.930618 33.705925,85.960579 34.022869,89.432220 
	C34.672970,96.922798 35.353695,103.971680 36.034416,111.020569 
	C35.524540,113.629623 36.152843,115.034714 39.258488,114.879860 
	C43.535713,114.666580 47.832397,114.843590 52.576019,115.282745 
	C53.046425,116.940727 53.061550,118.169373 53.076679,119.398026 
z"/>
<path fill="#D92A36" opacity="1.000000" stroke="none" 
	d="
M66.812363,78.845634 
	C66.574348,81.927177 66.336334,85.008728 65.588287,88.533981 
	C61.370602,88.938377 57.662930,88.899063 53.955368,88.415817 
	C53.116734,84.703156 56.590862,79.774956 49.849167,78.807045 
	C42.472286,77.747932 42.523582,77.459648 40.952549,85.021049 
	C40.685513,86.306297 40.295967,87.566101 39.591698,88.907486 
	C38.468273,88.931625 37.716175,88.885941 36.970882,88.458717 
	C37.249878,86.348137 37.522068,84.619087 37.794258,82.890045 
	C38.226482,79.958626 38.480400,76.986328 39.140579,74.107178 
	C39.814331,71.168808 41.440327,68.663620 44.921116,69.190010 
	C52.431839,70.325867 59.900986,71.740585 67.374359,73.110954 
	C67.901794,73.207664 68.324562,73.875153 68.891495,74.635925 
	C68.497055,75.287804 68.007111,75.581001 66.887512,75.827560 
	C59.277122,74.425339 52.311546,72.977394 45.297188,71.826836 
	C44.383171,71.676910 43.218147,73.057281 42.169388,73.728844 
	C43.060307,74.459671 43.874336,75.690918 44.854408,75.841507 
	C52.155228,76.963272 59.488956,77.870865 66.812363,78.845634 
z"/>
<path fill="#E0B153" opacity="1.000000" stroke="none" 
	d="
M19.988613,83.702209 
	C30.140617,83.404129 28.599663,82.252350 29.123722,92.565521 
	C26.068075,90.005486 23.087069,87.003326 19.988613,83.702209 
z"/>
<path fill="#477B9A" opacity="1.000000" stroke="none" 
	d="
M36.201485,123.495705 
	C37.297180,122.668770 38.293140,122.158699 39.621086,122.114349 
	C39.982647,125.335701 40.012218,128.091339 40.041790,130.846970 
	C39.868607,130.896667 39.695427,130.946350 39.257149,131.048706 
	C36.122772,129.427521 34.689762,127.184120 36.201485,123.495705 
z"/>
<path fill="#FAA634" opacity="1.000000" stroke="none" 
	d="
M37.535812,82.728210 
	C37.522068,84.619087 37.249878,86.348137 36.611942,88.525452 
	C35.515297,88.979332 34.784393,88.984932 34.053490,88.990532 
	C33.705925,85.960579 33.358364,82.930618 33.006378,79.473053 
	C34.427094,80.219093 35.852230,81.392738 37.535812,82.728210 
z"/>
<path fill="#7DD8FD" opacity="1.000000" stroke="none" 
	d="
M53.955261,88.859749 
	C57.662930,88.899063 61.370602,88.938377 65.535027,88.908325 
	C68.467041,88.948898 70.942299,89.058830 73.815422,89.186440 
	C72.447243,95.675804 71.288094,101.965256 69.675163,108.136101 
	C69.363792,109.327370 67.337975,110.745857 65.996605,110.865425 
	C62.036194,111.218445 58.022430,110.972939 53.559032,110.485039 
	C53.040249,108.366508 52.991974,106.724533 53.355064,105.041061 
	C57.454689,102.034317 57.003265,96.502296 52.975704,94.508652 
	C53.018097,92.460480 53.028500,90.821091 53.270138,89.107330 
	C53.501377,89.032951 53.955261,88.859749 53.955261,88.859749 
M60.866409,102.222816 
	C61.939827,103.115395 63.013245,104.007973 64.086662,104.900551 
	C64.730080,103.921501 65.700378,103.014633 65.936447,101.945633 
	C66.250984,100.521248 66.294144,98.880722 65.880966,97.505112 
	C65.590935,96.539505 64.351746,95.236053 63.523563,95.226761 
	C62.661438,95.217072 61.388092,96.426125 61.014584,97.383263 
	C60.560825,98.546043 60.860157,100.002724 60.866409,102.222816 
z"/>
<path fill="#BFE9FF" opacity="1.000000" stroke="none" 
	d="
M52.943695,105.082565 
	C52.991974,106.724533 53.040249,108.366508 53.103756,110.418716 
	C47.734177,110.885689 42.349365,110.942413 36.499489,111.009857 
	C35.353695,103.971680 34.672970,96.922798 34.022869,89.432220 
	C34.784393,88.984932 35.515297,88.979332 36.605141,88.906998 
	C37.716175,88.885941 38.468273,88.931625 40.054123,88.973396 
	C44.938217,89.040222 48.988556,89.110962 53.038898,89.181702 
	C53.028500,90.821091 53.018097,92.460480 52.595444,94.639572 
	C50.643059,98.618111 49.379604,102.035698 52.943695,105.082565 
M40.351906,102.964401 
	C41.618404,103.603065 42.841774,104.434158 44.183987,104.735016 
	C44.490971,104.803825 45.783230,102.931572 45.629364,102.147484 
	C45.142673,99.667358 47.841423,95.290916 42.995319,95.185280 
	C38.473362,95.086708 40.861832,99.302681 40.252876,101.636414 
	C40.213184,101.788521 40.258560,101.962830 40.351906,102.964401 
z"/>
<path fill="#FBE0CC" opacity="1.000000" stroke="none" 
	d="
M66.838844,78.500748 
	C59.488956,77.870865 52.155228,76.963272 44.854408,75.841507 
	C43.874336,75.690918 43.060307,74.459671 42.169388,73.728844 
	C43.218147,73.057281 44.383171,71.676910 45.297188,71.826836 
	C52.311546,72.977394 59.277122,74.425339 66.622162,75.933426 
	C66.946091,76.775902 66.905708,77.465881 66.838844,78.500748 
z"/>
<path fill="#1AA3DF" opacity="1.000000" stroke="none" 
	d="
M53.505753,119.569611 
	C53.061550,118.169373 53.046425,116.940727 53.043869,115.343552 
	C58.177200,114.975037 63.297955,114.975037 68.659515,114.975037 
	C69.246925,118.267937 68.317917,120.132126 64.389664,119.885582 
	C60.915382,119.667526 57.420574,119.776573 53.505753,119.569611 
z"/>
<path fill="#21638D" opacity="1.000000" stroke="none" 
	d="
M40.413795,130.903870 
	C40.012218,128.091339 39.982647,125.335701 39.958679,122.108040 
	C41.638645,122.950775 44.210674,123.960350 44.784821,125.649162 
	C45.734520,128.442627 43.923244,130.523621 40.413795,130.903870 
z"/>
<path fill="#21638D" opacity="1.000000" stroke="none" 
	d="
M60.934113,121.656357 
	C62.619488,123.046577 65.579926,124.375519 65.650467,125.843353 
	C65.729286,127.483467 63.186081,129.249588 61.394070,130.453735 
	C60.980801,127.183189 60.957455,124.419777 60.934113,121.656357 
z"/>
<path fill="#477B9A" opacity="1.000000" stroke="none" 
	d="
M60.563354,121.673187 
	C60.957455,124.419777 60.980801,127.183189 61.022316,130.396820 
	C59.536606,129.460602 56.942226,128.157227 56.828537,126.664871 
	C56.709404,125.101097 58.971348,123.355911 60.563354,121.673187 
z"/>
<path fill="#1D2122" opacity="1.000000" stroke="none" 
	d="
M150.437790,98.515289 
	C151.443344,101.646011 152.609497,104.570282 152.570663,107.478455 
	C152.553421,108.769592 150.160767,110.942802 148.739883,111.032677 
	C147.437469,111.115074 145.335251,109.198532 144.729233,107.700157 
	C142.705353,102.696175 145.248642,98.585266 150.437790,98.515289 
z"/>
<path fill="#F0434E" opacity="1.000000" stroke="none" 
	d="
M53.270138,89.107330 
	C48.988556,89.110962 44.938217,89.040222 40.425449,88.903564 
	C40.295967,87.566101 40.685513,86.306297 40.952549,85.021049 
	C42.523582,77.459648 42.472286,77.747932 49.849167,78.807045 
	C56.590862,79.774956 53.116734,84.703156 53.955368,88.415817 
	C53.955261,88.859749 53.501377,89.032951 53.270138,89.107330 
z"/>
<path fill="#23B2F3" opacity="1.000000" stroke="none" 
	d="
M53.355064,105.041061 
	C49.379604,102.035698 50.643059,98.618111 52.563454,95.048355 
	C57.003265,96.502296 57.454689,102.034317 53.355064,105.041061 
z"/>
<path fill="#1AA3DF" opacity="1.000000" stroke="none" 
	d="
M60.850044,101.777534 
	C60.860157,100.002724 60.560825,98.546043 61.014584,97.383263 
	C61.388092,96.426125 62.661438,95.217072 63.523563,95.226761 
	C64.351746,95.236053 65.590935,96.539505 65.880966,97.505112 
	C66.294144,98.880722 66.250984,100.521248 65.936447,101.945633 
	C65.700378,103.014633 64.730080,103.921501 64.086662,104.900551 
	C63.013245,104.007973 61.939827,103.115395 60.850044,101.777534 
z"/>
<path fill="#51C9FF" opacity="1.000000" stroke="none" 
	d="
M40.308136,102.545609 
	C40.258560,101.962830 40.213184,101.788521 40.252876,101.636414 
	C40.861832,99.302681 38.473362,95.086708 42.995319,95.185280 
	C47.841423,95.290916 45.142673,99.667358 45.629364,102.147484 
	C45.783230,102.931572 44.490971,104.803825 44.183987,104.735016 
	C42.841774,104.434158 41.618404,103.603065 40.308136,102.545609 
z"/>
</svg>